<mxfile host="app.diagrams.net" agent="Mozilla/5.0 (Windows NT 10.0; Win64; x64) AppleWebKit/537.36 (KHTML, like Gecko) Chrome/130.0.0.0 YaBrowser/24.12.0.0 Safari/537.36" version="25.0.3">
  <diagram id="C5RBs43oDa-KdzZeNtuy" name="Page-1">
    <mxGraphModel dx="2390" dy="1318" grid="1" gridSize="10" guides="1" tooltips="1" connect="1" arrows="1" fold="1" page="1" pageScale="1" pageWidth="827" pageHeight="1169" math="0" shadow="0">
      <root>
        <mxCell id="WIyWlLk6GJQsqaUBKTNV-0" />
        <mxCell id="WIyWlLk6GJQsqaUBKTNV-1" parent="WIyWlLk6GJQsqaUBKTNV-0" />
        <mxCell id="FlnC2cuo9qLKcEJLLTfy-3" style="edgeStyle=orthogonalEdgeStyle;rounded=0;orthogonalLoop=1;jettySize=auto;html=1;entryX=0.5;entryY=0;entryDx=0;entryDy=0;" edge="1" parent="WIyWlLk6GJQsqaUBKTNV-1" source="FlnC2cuo9qLKcEJLLTfy-0" target="FlnC2cuo9qLKcEJLLTfy-1">
          <mxGeometry relative="1" as="geometry" />
        </mxCell>
        <mxCell id="FlnC2cuo9qLKcEJLLTfy-0" value="Начало" style="rounded=1;whiteSpace=wrap;html=1;" vertex="1" parent="WIyWlLk6GJQsqaUBKTNV-1">
          <mxGeometry x="180" y="140" width="120" height="60" as="geometry" />
        </mxCell>
        <mxCell id="FlnC2cuo9qLKcEJLLTfy-4" style="edgeStyle=orthogonalEdgeStyle;rounded=0;orthogonalLoop=1;jettySize=auto;html=1;entryX=0.5;entryY=0;entryDx=0;entryDy=0;" edge="1" parent="WIyWlLk6GJQsqaUBKTNV-1" source="FlnC2cuo9qLKcEJLLTfy-1" target="FlnC2cuo9qLKcEJLLTfy-2">
          <mxGeometry relative="1" as="geometry" />
        </mxCell>
        <mxCell id="FlnC2cuo9qLKcEJLLTfy-1" value="Ввод M" style="shape=parallelogram;perimeter=parallelogramPerimeter;whiteSpace=wrap;html=1;fixedSize=1;" vertex="1" parent="WIyWlLk6GJQsqaUBKTNV-1">
          <mxGeometry x="180" y="220" width="120" height="60" as="geometry" />
        </mxCell>
        <mxCell id="FlnC2cuo9qLKcEJLLTfy-7" style="edgeStyle=orthogonalEdgeStyle;rounded=0;orthogonalLoop=1;jettySize=auto;html=1;entryX=0.5;entryY=0;entryDx=0;entryDy=0;" edge="1" parent="WIyWlLk6GJQsqaUBKTNV-1" source="FlnC2cuo9qLKcEJLLTfy-2" target="FlnC2cuo9qLKcEJLLTfy-6">
          <mxGeometry relative="1" as="geometry" />
        </mxCell>
        <mxCell id="FlnC2cuo9qLKcEJLLTfy-2" value="Ввод n" style="shape=parallelogram;perimeter=parallelogramPerimeter;whiteSpace=wrap;html=1;fixedSize=1;" vertex="1" parent="WIyWlLk6GJQsqaUBKTNV-1">
          <mxGeometry x="180" y="300" width="120" height="60" as="geometry" />
        </mxCell>
        <mxCell id="FlnC2cuo9qLKcEJLLTfy-9" style="edgeStyle=orthogonalEdgeStyle;rounded=0;orthogonalLoop=1;jettySize=auto;html=1;entryX=0.5;entryY=0;entryDx=0;entryDy=0;" edge="1" parent="WIyWlLk6GJQsqaUBKTNV-1" source="FlnC2cuo9qLKcEJLLTfy-6" target="FlnC2cuo9qLKcEJLLTfy-8">
          <mxGeometry relative="1" as="geometry" />
        </mxCell>
        <mxCell id="FlnC2cuo9qLKcEJLLTfy-6" value="luckyCount = 0" style="rounded=0;whiteSpace=wrap;html=1;" vertex="1" parent="WIyWlLk6GJQsqaUBKTNV-1">
          <mxGeometry x="180" y="380" width="120" height="60" as="geometry" />
        </mxCell>
        <mxCell id="FlnC2cuo9qLKcEJLLTfy-11" style="edgeStyle=orthogonalEdgeStyle;rounded=0;orthogonalLoop=1;jettySize=auto;html=1;entryX=0.5;entryY=0;entryDx=0;entryDy=0;" edge="1" parent="WIyWlLk6GJQsqaUBKTNV-1" source="FlnC2cuo9qLKcEJLLTfy-8" target="FlnC2cuo9qLKcEJLLTfy-10">
          <mxGeometry relative="1" as="geometry" />
        </mxCell>
        <mxCell id="FlnC2cuo9qLKcEJLLTfy-20" style="edgeStyle=orthogonalEdgeStyle;rounded=0;orthogonalLoop=1;jettySize=auto;html=1;entryX=0.5;entryY=0;entryDx=0;entryDy=0;" edge="1" parent="WIyWlLk6GJQsqaUBKTNV-1" source="FlnC2cuo9qLKcEJLLTfy-8" target="FlnC2cuo9qLKcEJLLTfy-19">
          <mxGeometry relative="1" as="geometry">
            <Array as="points">
              <mxPoint x="320" y="500" />
              <mxPoint x="320" y="780" />
              <mxPoint x="240" y="780" />
            </Array>
          </mxGeometry>
        </mxCell>
        <mxCell id="FlnC2cuo9qLKcEJLLTfy-8" value="ticket = M; ticket &amp;lt;= N; ++ticket" style="shape=hexagon;perimeter=hexagonPerimeter2;whiteSpace=wrap;html=1;fixedSize=1;" vertex="1" parent="WIyWlLk6GJQsqaUBKTNV-1">
          <mxGeometry x="165" y="460" width="150" height="80" as="geometry" />
        </mxCell>
        <mxCell id="FlnC2cuo9qLKcEJLLTfy-14" value="" style="edgeStyle=orthogonalEdgeStyle;rounded=0;orthogonalLoop=1;jettySize=auto;html=1;" edge="1" parent="WIyWlLk6GJQsqaUBKTNV-1" source="FlnC2cuo9qLKcEJLLTfy-10" target="FlnC2cuo9qLKcEJLLTfy-13">
          <mxGeometry relative="1" as="geometry" />
        </mxCell>
        <mxCell id="FlnC2cuo9qLKcEJLLTfy-16" value="Да" style="edgeLabel;html=1;align=center;verticalAlign=middle;resizable=0;points=[];" vertex="1" connectable="0" parent="FlnC2cuo9qLKcEJLLTfy-14">
          <mxGeometry x="0.2303" relative="1" as="geometry">
            <mxPoint as="offset" />
          </mxGeometry>
        </mxCell>
        <mxCell id="FlnC2cuo9qLKcEJLLTfy-17" style="edgeStyle=orthogonalEdgeStyle;rounded=0;orthogonalLoop=1;jettySize=auto;html=1;" edge="1" parent="WIyWlLk6GJQsqaUBKTNV-1" source="FlnC2cuo9qLKcEJLLTfy-10">
          <mxGeometry relative="1" as="geometry">
            <mxPoint x="240" y="750" as="targetPoint" />
            <Array as="points">
              <mxPoint x="310" y="610" />
              <mxPoint x="310" y="750" />
            </Array>
          </mxGeometry>
        </mxCell>
        <mxCell id="FlnC2cuo9qLKcEJLLTfy-18" value="Нет" style="edgeLabel;html=1;align=center;verticalAlign=middle;resizable=0;points=[];" vertex="1" connectable="0" parent="FlnC2cuo9qLKcEJLLTfy-17">
          <mxGeometry x="-0.9409" y="1" relative="1" as="geometry">
            <mxPoint x="13" y="11" as="offset" />
          </mxGeometry>
        </mxCell>
        <mxCell id="FlnC2cuo9qLKcEJLLTfy-10" value="isLucky(ticket)" style="rhombus;whiteSpace=wrap;html=1;" vertex="1" parent="WIyWlLk6GJQsqaUBKTNV-1">
          <mxGeometry x="190" y="570" width="100" height="80" as="geometry" />
        </mxCell>
        <mxCell id="FlnC2cuo9qLKcEJLLTfy-15" style="edgeStyle=orthogonalEdgeStyle;rounded=0;orthogonalLoop=1;jettySize=auto;html=1;entryX=0;entryY=0.5;entryDx=0;entryDy=0;" edge="1" parent="WIyWlLk6GJQsqaUBKTNV-1" source="FlnC2cuo9qLKcEJLLTfy-13" target="FlnC2cuo9qLKcEJLLTfy-8">
          <mxGeometry relative="1" as="geometry">
            <Array as="points">
              <mxPoint x="240" y="760" />
              <mxPoint x="145" y="760" />
              <mxPoint x="145" y="500" />
            </Array>
          </mxGeometry>
        </mxCell>
        <mxCell id="FlnC2cuo9qLKcEJLLTfy-13" value="luckyCount++" style="whiteSpace=wrap;html=1;" vertex="1" parent="WIyWlLk6GJQsqaUBKTNV-1">
          <mxGeometry x="180" y="680" width="120" height="60" as="geometry" />
        </mxCell>
        <mxCell id="FlnC2cuo9qLKcEJLLTfy-22" style="edgeStyle=orthogonalEdgeStyle;rounded=0;orthogonalLoop=1;jettySize=auto;html=1;entryX=0.5;entryY=0;entryDx=0;entryDy=0;" edge="1" parent="WIyWlLk6GJQsqaUBKTNV-1" source="FlnC2cuo9qLKcEJLLTfy-19" target="FlnC2cuo9qLKcEJLLTfy-21">
          <mxGeometry relative="1" as="geometry" />
        </mxCell>
        <mxCell id="FlnC2cuo9qLKcEJLLTfy-19" value="Вывод&amp;nbsp;&quot;Количество счастливых билетов: &quot;&amp;nbsp;&lt;div&gt;&amp;lt;&amp;lt; luckyCount&lt;/div&gt;" style="shape=parallelogram;perimeter=parallelogramPerimeter;whiteSpace=wrap;html=1;fixedSize=1;" vertex="1" parent="WIyWlLk6GJQsqaUBKTNV-1">
          <mxGeometry x="165" y="790" width="150" height="60" as="geometry" />
        </mxCell>
        <mxCell id="FlnC2cuo9qLKcEJLLTfy-21" value="Конец" style="rounded=1;whiteSpace=wrap;html=1;" vertex="1" parent="WIyWlLk6GJQsqaUBKTNV-1">
          <mxGeometry x="180" y="870" width="120" height="60" as="geometry" />
        </mxCell>
        <mxCell id="FlnC2cuo9qLKcEJLLTfy-31" style="edgeStyle=orthogonalEdgeStyle;rounded=0;orthogonalLoop=1;jettySize=auto;html=1;entryX=0.5;entryY=0;entryDx=0;entryDy=0;" edge="1" parent="WIyWlLk6GJQsqaUBKTNV-1" source="FlnC2cuo9qLKcEJLLTfy-23" target="FlnC2cuo9qLKcEJLLTfy-25">
          <mxGeometry relative="1" as="geometry" />
        </mxCell>
        <mxCell id="FlnC2cuo9qLKcEJLLTfy-23" value="isLucky(ticket)" style="rounded=1;whiteSpace=wrap;html=1;" vertex="1" parent="WIyWlLk6GJQsqaUBKTNV-1">
          <mxGeometry x="354" y="140" width="120" height="60" as="geometry" />
        </mxCell>
        <mxCell id="FlnC2cuo9qLKcEJLLTfy-32" style="edgeStyle=orthogonalEdgeStyle;rounded=0;orthogonalLoop=1;jettySize=auto;html=1;entryX=0.5;entryY=0;entryDx=0;entryDy=0;" edge="1" parent="WIyWlLk6GJQsqaUBKTNV-1" source="FlnC2cuo9qLKcEJLLTfy-25" target="FlnC2cuo9qLKcEJLLTfy-26">
          <mxGeometry relative="1" as="geometry" />
        </mxCell>
        <mxCell id="FlnC2cuo9qLKcEJLLTfy-25" value="firstHalf = ticket / 1000" style="rounded=0;whiteSpace=wrap;html=1;" vertex="1" parent="WIyWlLk6GJQsqaUBKTNV-1">
          <mxGeometry x="354" y="220" width="120" height="60" as="geometry" />
        </mxCell>
        <mxCell id="FlnC2cuo9qLKcEJLLTfy-33" style="edgeStyle=orthogonalEdgeStyle;rounded=0;orthogonalLoop=1;jettySize=auto;html=1;entryX=0.5;entryY=0;entryDx=0;entryDy=0;" edge="1" parent="WIyWlLk6GJQsqaUBKTNV-1" source="FlnC2cuo9qLKcEJLLTfy-26" target="FlnC2cuo9qLKcEJLLTfy-27">
          <mxGeometry relative="1" as="geometry" />
        </mxCell>
        <mxCell id="FlnC2cuo9qLKcEJLLTfy-26" value="secondHalf = ticket % 1000" style="rounded=0;whiteSpace=wrap;html=1;" vertex="1" parent="WIyWlLk6GJQsqaUBKTNV-1">
          <mxGeometry x="354" y="300" width="120" height="60" as="geometry" />
        </mxCell>
        <mxCell id="FlnC2cuo9qLKcEJLLTfy-34" style="edgeStyle=orthogonalEdgeStyle;rounded=0;orthogonalLoop=1;jettySize=auto;html=1;entryX=0.5;entryY=0;entryDx=0;entryDy=0;" edge="1" parent="WIyWlLk6GJQsqaUBKTNV-1" source="FlnC2cuo9qLKcEJLLTfy-27" target="FlnC2cuo9qLKcEJLLTfy-28">
          <mxGeometry relative="1" as="geometry" />
        </mxCell>
        <mxCell id="FlnC2cuo9qLKcEJLLTfy-27" value="sumFirstHalf = (firstHalf / 100) + (firstHalf / 10 % 10) + (firstHalf % 10)" style="rounded=0;whiteSpace=wrap;html=1;" vertex="1" parent="WIyWlLk6GJQsqaUBKTNV-1">
          <mxGeometry x="354" y="380" width="120" height="60" as="geometry" />
        </mxCell>
        <mxCell id="FlnC2cuo9qLKcEJLLTfy-35" style="edgeStyle=orthogonalEdgeStyle;rounded=0;orthogonalLoop=1;jettySize=auto;html=1;entryX=0.5;entryY=0;entryDx=0;entryDy=0;" edge="1" parent="WIyWlLk6GJQsqaUBKTNV-1" source="FlnC2cuo9qLKcEJLLTfy-28" target="FlnC2cuo9qLKcEJLLTfy-29">
          <mxGeometry relative="1" as="geometry" />
        </mxCell>
        <mxCell id="FlnC2cuo9qLKcEJLLTfy-28" value="sumSecondHalf = (secondHalf / 100) + (secondHalf / 10 % 10) + (secondHalf % 10)" style="rounded=0;whiteSpace=wrap;html=1;" vertex="1" parent="WIyWlLk6GJQsqaUBKTNV-1">
          <mxGeometry x="354" y="460" width="120" height="80" as="geometry" />
        </mxCell>
        <mxCell id="FlnC2cuo9qLKcEJLLTfy-36" style="edgeStyle=orthogonalEdgeStyle;rounded=0;orthogonalLoop=1;jettySize=auto;html=1;entryX=0.5;entryY=0;entryDx=0;entryDy=0;" edge="1" parent="WIyWlLk6GJQsqaUBKTNV-1" source="FlnC2cuo9qLKcEJLLTfy-29" target="FlnC2cuo9qLKcEJLLTfy-30">
          <mxGeometry relative="1" as="geometry" />
        </mxCell>
        <mxCell id="FlnC2cuo9qLKcEJLLTfy-29" value="return sumFirstHalf == sumSecondHalf" style="rounded=0;whiteSpace=wrap;html=1;" vertex="1" parent="WIyWlLk6GJQsqaUBKTNV-1">
          <mxGeometry x="354" y="555" width="120" height="60" as="geometry" />
        </mxCell>
        <mxCell id="FlnC2cuo9qLKcEJLLTfy-30" value="Конец" style="rounded=1;whiteSpace=wrap;html=1;" vertex="1" parent="WIyWlLk6GJQsqaUBKTNV-1">
          <mxGeometry x="354" y="630" width="120" height="60" as="geometry" />
        </mxCell>
      </root>
    </mxGraphModel>
  </diagram>
</mxfile>
